<svg xmlns="http://www.w3.org/2000/svg" width="40" zoomAndPan="magnify" viewBox="0 0 30 30.000001" height="40"
     preserveAspectRatio="xMidYMid meet" version="1.0"><defs><clipPath id="3da2bf3baf"><path d="M 0.484375 0 L 29.515625 0 L 29.515625 29.03125 L 0.484375 29.03125 Z M 0.484375 0 " clip-rule="nonzero"/></clipPath><clipPath id="56af7fee97"><path d="M 0.484375 0 L 29.515625 0 L 29.515625 29.03125 L 0.484375 29.03125 Z M 0.484375 0 " clip-rule="nonzero"/></clipPath></defs><g clip-path="url(#3da2bf3baf)"><path fill="#0b6937" d="M 0.648438 3.40625 C 0.910156 1.558594 2.425781 0.152344 4.277344 0.0117188 C 4.378906 0.00390625 4.53125 0 4.734375 0 C 11.820312 0 18.90625 0 25.992188 0 C 28.082031 0 29.800781 1.597656 29.957031 3.671875 C 29.964844 3.773438 29.96875 3.921875 29.96875 4.125 C 29.96875 11.210938 29.96875 18.292969 29.96875 25.378906 C 29.96875 27.476562 28.390625 29.183594 26.296875 29.351562 C 26.191406 29.363281 26.039062 29.367188 25.84375 29.367188 C 18.761719 29.367188 11.683594 29.367188 4.601562 29.367188 C 2.484375 29.367188 0.746094 27.746094 0.617188 25.625 C 0.609375 25.535156 0.605469 25.386719 0.605469 25.171875 C 0.605469 18.140625 0.605469 11.113281 0.605469 4.085938 C 0.605469 3.875 0.621094 3.617188 0.648438 3.40625 Z M 0.648438 3.40625 " fill-opacity="1" fill-rule="nonzero"/></g><path fill="#b5d45d" d="M 13.796875 11.636719 L 15.578125 10.117188 C 15.585938 10.113281 15.59375 10.113281 15.601562 10.121094 L 23.179688 19.082031 C 23.1875 19.089844 23.1875 19.097656 23.179688 19.101562 C 21.769531 20.292969 20.363281 21.484375 18.953125 22.675781 C 18.683594 22.902344 18.394531 23.097656 18.082031 23.261719 C 17.0625 23.804688 15.871094 23.816406 14.855469 23.277344 C 14.214844 22.9375 13.71875 22.457031 13.257812 21.910156 C 11.648438 20.007812 10.035156 18.105469 8.425781 16.203125 C 8.421875 16.195312 8.421875 16.183594 8.429688 16.175781 L 10.210938 14.667969 C 10.214844 14.664062 10.21875 14.664062 10.226562 14.664062 C 10.230469 14.664062 10.234375 14.667969 10.238281 14.667969 C 11.558594 16.230469 12.878906 17.792969 14.199219 19.355469 C 14.566406 19.789062 14.902344 20.246094 15.355469 20.582031 C 16.140625 21.167969 17.171875 21.164062 17.960938 20.585938 C 18.097656 20.488281 18.238281 20.371094 18.386719 20.246094 C 18.894531 19.800781 19.410156 19.359375 19.921875 18.917969 C 19.929688 18.914062 19.929688 18.90625 19.921875 18.902344 L 13.796875 11.652344 C 13.789062 11.644531 13.789062 11.640625 13.796875 11.636719 Z M 13.796875 11.636719 " fill-opacity="1" fill-rule="nonzero"/><path fill="#b5d45d" d="M 19.792969 13.242188 C 18.683594 11.933594 17.578125 10.625 16.472656 9.316406 C 16.242188 9.042969 15.988281 8.816406 15.707031 8.632812 C 15.019531 8.191406 14.128906 8.183594 13.421875 8.59375 C 13.28125 8.675781 13.140625 8.777344 13.003906 8.890625 C 12.414062 9.386719 11.828125 9.878906 11.242188 10.371094 C 11.234375 10.378906 11.234375 10.382812 11.242188 10.386719 C 13.308594 12.792969 15.34375 15.222656 17.398438 17.640625 C 17.402344 17.644531 17.402344 17.652344 17.398438 17.65625 L 15.601562 19.179688 C 15.59375 19.183594 15.589844 19.183594 15.585938 19.175781 L 15.582031 19.167969 C 15.582031 19.164062 15.578125 19.160156 15.574219 19.15625 L 7.921875 10.105469 C 7.914062 10.101562 7.914062 10.09375 7.921875 10.085938 C 9.15625 9.039062 10.390625 7.996094 11.628906 6.953125 C 12.644531 6.09375 14.003906 5.527344 15.347656 5.710938 C 16.460938 5.863281 17.253906 6.570312 17.945312 7.386719 C 19.550781 9.292969 21.15625 11.195312 22.765625 13.09375 C 22.769531 13.101562 22.769531 13.109375 22.761719 13.113281 L 20.976562 14.628906 C 20.96875 14.632812 20.964844 14.632812 20.957031 14.625 C 20.566406 14.167969 20.179688 13.703125 19.792969 13.242188 Z M 19.792969 13.242188 " fill-opacity="1" fill-rule="nonzero"/><g clip-path="url(#56af7fee97)"><path fill="#0b6937" d="M 0.617188 3.316406 C 0.878906 1.472656 2.394531 0.0664062 4.246094 -0.0742188 C 4.347656 -0.0820312 4.5 -0.0859375 4.699219 -0.0859375 C 11.789062 -0.0859375 18.875 -0.0859375 25.960938 -0.0859375 C 28.050781 -0.0859375 29.769531 1.511719 29.925781 3.585938 C 29.933594 3.683594 29.9375 3.835938 29.9375 4.039062 C 29.9375 11.121094 29.9375 18.207031 29.9375 25.289062 C 29.9375 27.390625 28.359375 29.097656 26.265625 29.265625 C 26.160156 29.277344 26.007812 29.28125 25.8125 29.28125 C 18.730469 29.28125 11.648438 29.28125 4.570312 29.28125 C 2.453125 29.28125 0.714844 27.660156 0.582031 25.539062 C 0.578125 25.449219 0.574219 25.300781 0.574219 25.085938 C 0.574219 18.054688 0.574219 11.027344 0.574219 4 C 0.574219 3.789062 0.589844 3.527344 0.617188 3.316406 Z M 0.617188 3.316406 " fill-opacity="1" fill-rule="nonzero"/></g><path fill="#b5d45d" d="M 12.597656 10.765625 L 14.800781 8.550781 C 14.808594 8.542969 14.816406 8.542969 14.824219 8.550781 L 25.886719 19.617188 C 25.898438 19.625 25.898438 19.632812 25.886719 19.640625 C 24.148438 21.382812 22.410156 23.117188 20.671875 24.855469 C 20.339844 25.1875 19.972656 25.480469 19.578125 25.734375 C 18.28125 26.566406 16.699219 26.710938 15.292969 26.109375 C 14.40625 25.730469 13.695312 25.148438 13.015625 24.46875 C 10.667969 22.121094 8.320312 19.773438 5.972656 17.421875 C 5.960938 17.414062 5.960938 17.398438 5.972656 17.390625 L 8.171875 15.1875 C 8.175781 15.183594 8.183594 15.179688 8.1875 15.179688 C 8.195312 15.179688 8.203125 15.183594 8.207031 15.1875 C 10.132812 17.113281 12.058594 19.042969 13.988281 20.972656 C 14.523438 21.507812 15.019531 22.074219 15.660156 22.472656 C 16.769531 23.167969 18.136719 23.046875 19.121094 22.191406 C 19.292969 22.042969 19.464844 21.875 19.648438 21.691406 C 20.273438 21.042969 20.910156 20.402344 21.539062 19.757812 C 21.546875 19.75 21.546875 19.742188 21.539062 19.734375 L 12.597656 10.78125 C 12.59375 10.777344 12.589844 10.769531 12.597656 10.765625 Z M 12.597656 10.765625 " fill-opacity="1" fill-rule="nonzero"/><path fill="#b5d45d" d="M 20.738281 12.234375 C 19.125 10.621094 17.511719 9.003906 15.898438 7.386719 C 15.5625 7.046875 15.199219 6.773438 14.804688 6.566406 C 13.839844 6.050781 12.660156 6.144531 11.765625 6.765625 C 11.585938 6.890625 11.410156 7.035156 11.238281 7.207031 C 10.515625 7.925781 9.789062 8.648438 9.066406 9.367188 C 9.058594 9.375 9.058594 9.382812 9.066406 9.390625 C 12.078125 12.355469 15.054688 15.359375 18.050781 18.339844 C 18.054688 18.34375 18.054688 18.355469 18.050781 18.359375 L 15.828125 20.582031 C 15.820312 20.589844 15.816406 20.589844 15.808594 20.578125 L 15.804688 20.566406 C 15.800781 20.5625 15.796875 20.558594 15.792969 20.554688 L 4.625 9.382812 C 4.617188 9.375 4.617188 9.367188 4.625 9.355469 C 6.148438 7.828125 7.675781 6.304688 9.199219 4.78125 C 10.457031 3.527344 12.199219 2.628906 14.003906 2.722656 C 15.496094 2.800781 16.632812 3.652344 17.636719 4.660156 C 19.984375 7.011719 22.328125 9.363281 24.671875 11.707031 C 24.679688 11.714844 24.679688 11.726562 24.671875 11.734375 L 22.464844 13.945312 C 22.457031 13.953125 22.449219 13.953125 22.441406 13.945312 C 21.867188 13.378906 21.308594 12.804688 20.738281 12.234375 Z M 20.738281 12.234375 " fill-opacity="1" fill-rule="nonzero"/></svg>